solid STL generated by MeshLab
  facet normal  1.000000e+00  0.000000e+00  0.000000e+00
    outer loop
      vertex   2.250000e+01  2.250000e+01  6.500000e+00
      vertex   2.250000e+01 -2.250000e+01  6.500000e+00
      vertex   2.250000e+01  2.250000e+01 -6.500000e+00
    endloop
  endfacet
  facet normal  1.000000e+00  0.000000e+00  0.000000e+00
    outer loop
      vertex   2.250000e+01  2.250000e+01 -6.500000e+00
      vertex   2.250000e+01 -2.250000e+01  6.500000e+00
      vertex   2.250000e+01 -2.250000e+01 -6.500000e+00
    endloop
  endfacet
  facet normal -0.000000e+00  1.000000e+00  0.000000e+00
    outer loop
      vertex  -2.250000e+01  2.250000e+01  6.500000e+00
      vertex   2.250000e+01  2.250000e+01  6.500000e+00
      vertex  -2.250000e+01  2.250000e+01 -6.500000e+00
    endloop
  endfacet
  facet normal  0.000000e+00  1.000000e+00  0.000000e+00
    outer loop
      vertex  -2.250000e+01  2.250000e+01 -6.500000e+00
      vertex   2.250000e+01  2.250000e+01  6.500000e+00
      vertex   2.250000e+01  2.250000e+01 -6.500000e+00
    endloop
  endfacet
  facet normal -1.000000e+00  0.000000e+00  0.000000e+00
    outer loop
      vertex  -2.250000e+01 -2.250000e+01  6.500000e+00
      vertex  -2.250000e+01  2.250000e+01  6.500000e+00
      vertex  -2.250000e+01 -2.250000e+01 -6.500000e+00
    endloop
  endfacet
  facet normal -1.000000e+00  0.000000e+00  0.000000e+00
    outer loop
      vertex  -2.250000e+01 -2.250000e+01 -6.500000e+00
      vertex  -2.250000e+01  2.250000e+01  6.500000e+00
      vertex  -2.250000e+01  2.250000e+01 -6.500000e+00
    endloop
  endfacet
  facet normal -0.000000e+00 -1.000000e+00 -0.000000e+00
    outer loop
      vertex   2.250000e+01 -2.250000e+01  6.500000e+00
      vertex  -2.250000e+01 -2.250000e+01  6.500000e+00
      vertex   2.250000e+01 -2.250000e+01 -6.500000e+00
    endloop
  endfacet
  facet normal  0.000000e+00 -1.000000e+00  0.000000e+00
    outer loop
      vertex   2.250000e+01 -2.250000e+01 -6.500000e+00
      vertex  -2.250000e+01 -2.250000e+01  6.500000e+00
      vertex  -2.250000e+01 -2.250000e+01 -6.500000e+00
    endloop
  endfacet
  facet normal -0.000000e+00  0.000000e+00  1.000000e+00
    outer loop
      vertex  -2.250000e+01  2.250000e+01  6.500000e+00
      vertex  -2.250000e+01 -2.250000e+01  6.500000e+00
      vertex   2.250000e+01  2.250000e+01  6.500000e+00
    endloop
  endfacet
  facet normal  0.000000e+00  0.000000e+00  1.000000e+00
    outer loop
      vertex   2.250000e+01  2.250000e+01  6.500000e+00
      vertex  -2.250000e+01 -2.250000e+01  6.500000e+00
      vertex   2.250000e+01 -2.250000e+01  6.500000e+00
    endloop
  endfacet
  facet normal  0.000000e+00  0.000000e+00 -1.000000e+00
    outer loop
      vertex  -2.250000e+01 -2.250000e+01 -6.500000e+00
      vertex  -2.250000e+01  2.250000e+01 -6.500000e+00
      vertex   2.250000e+01 -2.250000e+01 -6.500000e+00
    endloop
  endfacet
  facet normal  0.000000e+00  0.000000e+00 -1.000000e+00
    outer loop
      vertex   2.250000e+01 -2.250000e+01 -6.500000e+00
      vertex  -2.250000e+01  2.250000e+01 -6.500000e+00
      vertex   2.250000e+01  2.250000e+01 -6.500000e+00
    endloop
  endfacet
endsolid vcg
